<svg xmlns="http://www.w3.org/2000/svg" width="64" height="64" viewBox="0 0 16.933 16.933" id="income"><path d="M6.138.53c-.351 0-.673.154-.876.412-.204.257-.28.62-.17.986l.438 1.46a2.781 2.781 0 0 1 1.085-.214h3.173c.03 0 .06.005.09.009l.379-1.253c.11-.366.033-.73-.17-.988A1.111 1.111 0 0 0 9.21.529Zm7.619 2.646a.265.265 0 0 0-.264.291l.237 2.353h-.766a.265.265 0 0 0-.211.424l1.586 2.115a.265.265 0 0 0 .424 0l1.587-2.115a.265.265 0 0 0-.212-.424h-.766l.236-2.353a.265.265 0 0 0-.263-.291zM.793 3.441a.265.265 0 0 0-.264.263v4.233c0 .147.118.266.264.266H2.38a.265.265 0 0 0 .266-.266V3.704a.265.265 0 0 0-.266-.263Zm2.645.262a.265.265 0 0 0-.263.264v3.706c0 .145.118.263.263.263l.53.001a.265.265 0 0 0 .264-.263V3.968a.265.265 0 0 0-.263-.264Zm1.324 3.44c.502.012.605.265 1.324.265h3.173c.298 0 .53-.232.53-.53 0-.012-.005-.022-.006-.034a.995.995 0 0 1-.258.035H8.467a.265.265 0 1 1 0-.53h1.058a.522.522 0 0 0 .508-.666 1.036 1.036 0 0 1-.508.137H8.467a.265.265 0 1 1 0-.529h1.058c.298 0 .529-.232.529-.53 0-.016-.006-.03-.007-.046a.757.757 0 0 1-.258.046H8.467a.265.265 0 1 1 0-.529h1.322a.258.258 0 0 0 .265-.263.26.26 0 0 0-.265-.266H6.615c-.485 0-.76.113-1.05.242-.292.13-.347.287-.803.288Zm-2.91 0a.265.265 0 1 1 0 .53.265.265 0 0 1 0-.53zm8.218.406a1.053 1.053 0 0 1-.81.389H6.085c-.35 0-.643-.047-.9-.1a2.363 2.363 0 0 1-.221.393c-.21.306-.505.645-.809 1.033-.607.775-1.246 1.77-1.246 3.171 0 1.25.428 2.269 1.252 2.95.824.68 2.014 1.02 3.512 1.02 1.497 0 2.685-.34 3.509-1.02.824-.681 1.252-1.7 1.252-2.95 0-1.402-.64-2.396-1.246-3.171-.304-.388-.6-.727-.809-1.033-.17-.25-.276-.472-.31-.682Zm3.414 1.181a.265.265 0 0 0-.178.079l-.373.373a.265.265 0 1 0 .375.375l.373-.374a.265.265 0 0 0 0-.374.264.264 0 0 0-.197-.079zm2.117 0a.265.265 0 0 0-.178.079.265.265 0 0 0 0 .374l.373.374a.265.265 0 0 0 .373-.375l-.373-.373a.264.264 0 0 0-.195-.079zm-1.05.264a.265.265 0 0 0-.265.264v.527a.265.265 0 1 0 .53 0v-.527a.265.265 0 0 0-.264-.264Zm-6.877.532c.145 0 .263.118.263.263v.266h.264c.435 0 .795.357.795.792a.265.265 0 1 1-.53 0 .258.258 0 0 0-.265-.263h-.264v1.059h.264c.435 0 .795.357.795.792v.53c0 .435-.36.793-.795.793h-.264v.265a.265.265 0 0 1-.529 0v-.265h-.263a.798.798 0 0 1-.796-.793.265.265 0 1 1 .53 0c0 .151.114.264.266.264h.263v-1.06h-.263a.798.798 0 0 1-.796-.792v-.53c0-.435.36-.792.796-.792h.263v-.266c0-.146.12-.264.266-.263Zm-.53 1.058a.259.259 0 0 0-.266.263v.53a.26.26 0 0 0 .267.266h.263v-1.06zm.793 1.586v1.059h.264a.258.258 0 0 0 .265-.264v-.53a.26.26 0 0 0-.265-.265z" color="#000" font-family="sans-serif" font-weight="400" overflow="visible" style="line-height:normal;font-variant-ligatures:normal;font-variant-position:normal;font-variant-caps:normal;font-variant-numeric:normal;font-variant-alternates:normal;font-feature-settings:normal;text-indent:0;text-align:start;text-decoration-line:none;text-decoration-style:solid;text-decoration-color:#000;text-transform:none;text-orientation:mixed;shape-padding:0;isolation:auto;mix-blend-mode:normal"></path></svg>